<svg x="0" y="0" width="48" height="48" version="1.1" xmlns="http://www.w3.org/2000/svg" xmlns:xlink="http://www.w3.org/1999/xlink"><defs><linearGradient x1="6.1398" y1="6.1398" x2="57.06299" y2="57.06299" gradientUnits="userSpaceOnUse" id="color-1"><stop offset="0.18" stop-color="#000000"></stop><stop offset="1" stop-color="#000000" stop-opacity="0"></stop></linearGradient><filter id="dropshadow"><feColorMatrix type="matrix" values="0 0 0 0 .05  0 0 0 0 .15  0 0 0 0 .1  0 0 0 .8 0"></feColorMatrix> <feOffset dx="0" dy="1"></feOffset> <feGaussianBlur stdDeviation="1"></feGaussianBlur> <feComposite in="SourceGraphic"></feComposite></filter></defs><g fill="none" stroke="none" stroke-width="none" stroke-linecap="butt" stroke-linejoin="miter" stroke-miterlimit="none" stroke-dasharray="" stroke-dashoffset="0" font-family="none" font-weight="normal" font-size="none" text-anchor="start" mix-blend-mode="normal"><g fill="#000000" stroke="none" stroke-width="1" stroke-miterlimit="4" font-family="&quot;Open Sans&quot;, sans-serif" font-size="14"></g><g fill="#000000" stroke="none" stroke-width="1" stroke-miterlimit="4" font-family="&quot;Open Sans&quot;, sans-serif" font-size="14"></g><g fill="#000000" stroke="none" stroke-width="1" stroke-miterlimit="4" font-family="&quot;Open Sans&quot;, sans-serif" font-size="14"></g><path d="M3,24c0,-11.59798 9.40202,-21 21,-21c11.59798,0 21,9.40202 21,21c0,11.59798 -9.40202,21 -21,21c-11.59798,0 -21,-9.40202 -21,-21z" fill="#90caf9" stroke-width="1" stroke-miterlimit="10" font-family="sans-serif" font-size="12" filter="url(#dropshadow)"></path><path d="M19.22021,44.45363l-7.81852,-7.81852c-0.75858,-0.7586 -1.44965,-1.58514 -2.06342,-2.46968l0.69869,-0.40417l-2.18109,-2.18109l0.00001,0l-0.00001,-0.00001c-1.08947,-2.31438 -1.71607,-4.88923 -1.71607,-7.61737c0,-9.38256 7.20659,-17.06244 16.37185,-17.82299l2.9767,2.9767c0,0 0,-2.9767 0,-2.9767c4.33471,0.35971 8.23132,2.26715 11.13461,5.17044l0.01128,0.01128c-0.00375,-0.00376 -0.00751,-0.00752 -0.01127,-0.01128l7.80623,7.80623c0.37321,1.56706 0.5708,3.20222 0.5708,4.88353c0,11.59798 -9.40202,21 -21,21c-1.64424,0 -3.24435,-0.18897 -4.77979,-0.54637z M35.24003,27.91005c-0.37634,0.13303 -0.74401,0.28448 -1.10191,0.45327l0.65196,0.65196c0.16766,-0.35902 0.318,-0.72779 0.44995,-1.10523z" fill="url(#color-1)" stroke-width="1" stroke-miterlimit="10" font-family="sans-serif" font-size="12"></path><path d="M35.9068,23.96279c0,6.59041 -5.32978,11.9321 -11.9068,11.9321c-6.57702,0 -11.9068,-5.34169 -11.9068,-11.9321c0,-6.59041 5.32978,-11.9321 11.9068,-11.9321c6.57702,0 11.9068,5.34169 11.9068,11.9321z M10.44262,30.08289l-2.58675,1.49728c-1.08947,-2.31438 -1.71607,-4.88923 -1.71607,-7.61737c0,-9.38256 7.20659,-17.06244 16.37185,-17.82299l0,2.98414c-7.51021,0.75013 -13.39515,7.11729 -13.39515,14.83885c0,2.18192 0.48074,4.24924 1.32612,6.12009z M25.48835,6.1398c9.16526,0.76055 16.37185,8.44043 16.37185,17.82299c0,2.72814 -0.62808,5.30448 -1.71756,7.61589l-2.58675,-1.49579c0.84538,-1.87086 1.32761,-3.93817 1.32761,-6.12158c0,-7.72007 -5.88493,-14.08872 -13.39515,-14.83885z M36.06159,32.66368l2.60015,1.50472c-3.22674,4.64514 -8.58629,7.69179 -14.66173,7.69179c-6.07693,0 -11.43648,-3.04665 -14.66173,-7.69477l2.59866,-1.50323c2.70433,3.75659 7.09943,6.21386 12.06307,6.21386c4.96365,0 9.35725,-2.45727 12.06159,-6.21237z M29.9534,24.1786l-8.9301,-4.69128l0,8.94945z" fill="#2196f3" stroke="none" stroke-width="0" stroke-miterlimit="4" font-family="&quot;Open Sans&quot;, sans-serif" font-size="14"></path></g></svg>